<svg xmlns="http://www.w3.org/2000/svg" xmlns:xlink="http://www.w3.org/1999/xlink" width="129" zoomAndPan="magnify" viewBox="0 0 96.75 44.999999" height="60" preserveAspectRatio="xMidYMid meet" version="1.0"><defs><g/><clipPath id="ba52f2d2f6"><path d="M 32.988281 17 L 60.667969 17 L 60.667969 30.230469 L 32.988281 30.230469 Z M 32.988281 17 " clip-rule="nonzero"/></clipPath><clipPath id="8bc9ef7826"><path d="M 41 2.550781 L 60.667969 2.550781 L 60.667969 13 L 41 13 Z M 41 2.550781 " clip-rule="nonzero"/></clipPath><clipPath id="5805543e8d"><path d="M 32.988281 2.550781 L 41 2.550781 L 41 9 L 32.988281 9 Z M 32.988281 2.550781 " clip-rule="nonzero"/></clipPath></defs><path fill="#5e17eb" d="M 57.058594 21.902344 C 56.820312 21.902344 56.625 22.09375 56.625 22.332031 L 56.625 23.621094 C 56.625 23.855469 56.820312 24.050781 57.058594 24.050781 C 57.292969 24.050781 57.488281 23.855469 57.488281 23.621094 L 57.488281 22.332031 C 57.488281 22.09375 57.292969 21.902344 57.058594 21.902344 Z M 57.058594 21.902344 " fill-opacity="1" fill-rule="nonzero"/><path fill="#5e17eb" d="M 36.859375 21.902344 C 36.621094 21.902344 36.429688 22.09375 36.429688 22.332031 L 36.429688 23.621094 C 36.429688 23.855469 36.621094 24.050781 36.859375 24.050781 C 37.09375 24.050781 37.289062 23.855469 37.289062 23.621094 L 37.289062 22.332031 C 37.289062 22.09375 37.09375 21.902344 36.859375 21.902344 Z M 36.859375 21.902344 " fill-opacity="1" fill-rule="nonzero"/><path fill="#5e17eb" d="M 46.097656 20.183594 L 47.386719 20.183594 L 47.386719 21.042969 L 46.097656 21.042969 Z M 46.097656 20.183594 " fill-opacity="1" fill-rule="nonzero"/><g clip-path="url(#ba52f2d2f6)"><path fill="#5e17eb" d="M 59.636719 27.488281 L 59.207031 27.488281 L 59.207031 18.464844 C 59.207031 17.992188 58.820312 17.605469 58.347656 17.605469 L 35.566406 17.605469 C 35.09375 17.605469 34.707031 17.992188 34.707031 18.464844 L 34.707031 27.488281 L 33.847656 27.488281 C 33.375 27.488281 32.988281 27.875 32.988281 28.347656 L 32.988281 29.207031 C 32.988281 29.679688 33.375 30.066406 33.847656 30.066406 L 59.636719 30.066406 C 60.109375 30.066406 60.496094 29.679688 60.496094 29.207031 L 60.496094 28.347656 C 60.496094 27.875 60.109375 27.488281 59.636719 27.488281 Z M 51.898438 18.464844 L 58.347656 18.464844 L 58.347656 27.488281 L 51.898438 27.488281 Z M 43.304688 20.183594 C 43.304688 19.710938 43.691406 19.324219 44.164062 19.324219 L 49.320312 19.324219 C 49.792969 19.324219 50.179688 19.710938 50.179688 20.183594 L 50.179688 25.769531 C 50.179688 26.242188 49.792969 26.628906 49.320312 26.628906 L 44.164062 26.628906 C 43.691406 26.628906 43.304688 26.242188 43.304688 25.769531 Z M 35.566406 18.464844 L 41.585938 18.464844 L 41.585938 27.488281 L 35.566406 27.488281 Z M 59.636719 29.207031 L 33.847656 29.207031 L 33.847656 28.347656 L 59.636719 28.347656 Z M 59.636719 29.207031 " fill-opacity="1" fill-rule="nonzero"/></g><path fill="#5e17eb" d="M 37.074219 16.746094 L 39.652344 16.746094 C 39.652344 16.230469 39.351562 15.800781 38.941406 15.585938 L 38.941406 13.734375 C 38.941406 12.683594 38.082031 11.824219 37.03125 11.824219 C 35.976562 11.824219 35.117188 12.683594 35.117188 13.734375 L 35.117188 14.746094 C 35.117188 14.984375 35.308594 15.175781 35.546875 15.175781 C 35.785156 15.175781 35.976562 14.984375 35.976562 14.746094 L 35.976562 13.734375 C 35.976562 13.15625 36.449219 12.683594 37.03125 12.683594 C 37.609375 12.683594 38.082031 13.15625 38.082031 13.734375 L 38.082031 15.476562 C 37.503906 15.628906 37.074219 16.121094 37.074219 16.746094 Z M 37.074219 16.746094 " fill-opacity="1" fill-rule="nonzero"/><path fill="#5e17eb" d="M 44.164062 14.597656 C 44.164062 14.359375 43.96875 14.164062 43.734375 14.164062 L 43.453125 14.164062 L 43.96875 12.917969 C 44.054688 12.703125 43.96875 12.445312 43.734375 12.359375 C 43.519531 12.273438 43.261719 12.359375 43.175781 12.597656 L 42.53125 14.164062 L 42.445312 14.164062 L 42.445312 12.660156 C 42.445312 12.425781 42.25 12.230469 42.015625 12.230469 C 41.777344 12.230469 41.585938 12.425781 41.585938 12.660156 L 41.585938 14.164062 L 41.15625 14.164062 C 40.917969 14.164062 40.726562 14.359375 40.726562 14.597656 L 40.726562 16.746094 L 44.164062 16.746094 Z M 44.164062 14.597656 " fill-opacity="1" fill-rule="nonzero"/><path fill="#5e17eb" d="M 46.097656 16.746094 L 58.132812 16.746094 C 58.132812 16.273438 57.746094 15.886719 57.273438 15.886719 L 46.957031 15.886719 C 46.484375 15.886719 46.097656 16.273438 46.097656 16.746094 Z M 46.097656 16.746094 " fill-opacity="1" fill-rule="nonzero"/><path fill="#5e17eb" d="M 49.320312 20.183594 L 48.246094 20.183594 L 48.246094 21.472656 C 48.246094 21.707031 48.054688 21.902344 47.816406 21.902344 L 45.667969 21.902344 C 45.429688 21.902344 45.238281 21.707031 45.238281 21.472656 L 45.238281 20.183594 L 44.164062 20.183594 L 44.164062 25.769531 L 49.320312 25.769531 Z M 49.320312 20.183594 " fill-opacity="1" fill-rule="nonzero"/><path fill="#5e17eb" d="M 48.355469 15.457031 C 48.589844 15.457031 48.785156 15.261719 48.785156 15.027344 C 48.785156 14.789062 48.589844 14.597656 48.355469 14.597656 L 47.496094 14.597656 C 47.257812 14.597656 47.066406 14.789062 47.066406 15.027344 C 47.066406 15.261719 47.257812 15.457031 47.496094 15.457031 Z M 48.355469 15.457031 " fill-opacity="1" fill-rule="nonzero"/><path fill="#5e17eb" d="M 50.933594 15.457031 C 51.167969 15.457031 51.363281 15.261719 51.363281 15.027344 C 51.363281 14.789062 51.167969 14.597656 50.933594 14.597656 L 50.074219 14.597656 C 49.835938 14.597656 49.644531 14.789062 49.644531 15.027344 C 49.644531 15.261719 49.835938 15.457031 50.074219 15.457031 Z M 50.933594 15.457031 " fill-opacity="1" fill-rule="nonzero"/><path fill="#5e17eb" d="M 54.15625 15.457031 C 54.390625 15.457031 54.585938 15.261719 54.585938 15.027344 C 54.585938 14.789062 54.390625 14.597656 54.15625 14.597656 L 53.296875 14.597656 C 53.058594 14.597656 52.867188 14.789062 52.867188 15.027344 C 52.867188 15.261719 53.058594 15.457031 53.296875 15.457031 Z M 54.15625 15.457031 " fill-opacity="1" fill-rule="nonzero"/><path fill="#5e17eb" d="M 56.734375 15.457031 C 56.972656 15.457031 57.164062 15.261719 57.164062 15.027344 C 57.164062 14.789062 56.972656 14.597656 56.734375 14.597656 L 55.875 14.597656 C 55.636719 14.597656 55.445312 14.789062 55.445312 15.027344 C 55.445312 15.261719 55.636719 15.457031 55.875 15.457031 Z M 56.734375 15.457031 " fill-opacity="1" fill-rule="nonzero"/><g clip-path="url(#8bc9ef7826)"><path fill="#5e17eb" d="M 60.066406 2.5625 L 41.15625 2.5625 L 41.15625 8.148438 L 48.246094 8.148438 C 48.484375 8.148438 48.675781 7.957031 48.675781 7.71875 C 48.675781 7.71875 48.675781 7.699219 48.675781 7.699219 C 48.675781 7.675781 48.675781 7.675781 48.675781 7.675781 L 48.675781 3.421875 L 49.535156 3.421875 L 49.535156 8.816406 C 49.320312 8.835938 49.128906 8.945312 49 9.117188 L 47.601562 10.835938 C 47.386719 11.09375 47.34375 11.457031 47.496094 11.738281 C 47.601562 12.039062 47.925781 12.230469 48.246094 12.230469 L 55.980469 12.230469 C 56.304688 12.230469 56.625 12.039062 56.753906 11.738281 C 56.90625 11.4375 56.863281 11.09375 56.648438 10.835938 L 55.25 9.117188 C 55.121094 8.945312 54.90625 8.835938 54.714844 8.816406 L 54.714844 3.421875 L 55.574219 3.421875 L 55.574219 7.675781 C 55.574219 7.914062 55.765625 8.105469 56.003906 8.105469 L 60.085938 8.105469 C 60.324219 8.105469 60.515625 7.914062 60.515625 7.675781 L 60.515625 2.992188 C 60.496094 2.753906 60.300781 2.5625 60.066406 2.5625 Z M 45.023438 5.785156 L 44.164062 5.785156 C 43.925781 5.785156 43.734375 5.59375 43.734375 5.355469 C 43.734375 5.121094 43.925781 4.925781 44.164062 4.925781 L 45.023438 4.925781 C 45.257812 4.925781 45.453125 5.121094 45.453125 5.355469 C 45.453125 5.59375 45.257812 5.785156 45.023438 5.785156 Z M 53.832031 8.792969 L 50.394531 8.792969 L 50.394531 3.421875 L 53.832031 3.421875 Z M 53.832031 8.792969 " fill-opacity="1" fill-rule="nonzero"/></g><g clip-path="url(#5805543e8d)"><path fill="#5e17eb" d="M 33.417969 8.148438 L 40.296875 8.148438 L 40.296875 2.5625 L 33.417969 2.5625 C 33.183594 2.5625 32.988281 2.753906 32.988281 2.992188 L 32.988281 7.71875 C 32.988281 7.957031 33.183594 8.148438 33.417969 8.148438 Z M 36.644531 4.925781 L 37.503906 4.925781 C 37.738281 4.925781 37.933594 5.121094 37.933594 5.355469 C 37.933594 5.59375 37.738281 5.785156 37.503906 5.785156 L 36.644531 5.785156 C 36.40625 5.785156 36.214844 5.59375 36.214844 5.355469 C 36.214844 5.121094 36.40625 4.925781 36.644531 4.925781 Z M 36.644531 4.925781 " fill-opacity="1" fill-rule="nonzero"/></g><g fill="#5e17eb" fill-opacity="1"><g transform="translate(11.509294, 35.466477)"><g><path d="M 0.5625 0 L 0.5625 -4.265625 L 2.265625 -4.265625 C 2.710938 -4.265625 3.046875 -4.160156 3.265625 -3.953125 C 3.492188 -3.753906 3.609375 -3.476562 3.609375 -3.125 C 3.609375 -2.863281 3.539062 -2.648438 3.40625 -2.484375 C 3.28125 -2.316406 3.085938 -2.191406 2.828125 -2.109375 L 2.828125 -2.046875 C 2.960938 -1.984375 3.066406 -1.894531 3.140625 -1.78125 C 3.222656 -1.664062 3.304688 -1.5 3.390625 -1.28125 L 3.8125 0 L 2.9375 0 L 2.53125 -1.28125 C 2.476562 -1.40625 2.425781 -1.503906 2.375 -1.578125 C 2.320312 -1.648438 2.253906 -1.703125 2.171875 -1.734375 C 2.085938 -1.765625 1.984375 -1.78125 1.859375 -1.78125 L 1.40625 -1.78125 L 1.40625 0 Z M 2.171875 -2.453125 C 2.578125 -2.453125 2.78125 -2.640625 2.78125 -3.015625 C 2.78125 -3.410156 2.578125 -3.609375 2.171875 -3.609375 L 1.40625 -3.609375 L 1.40625 -2.453125 Z M 2.171875 -2.453125 "/></g></g><g transform="translate(15.503845, 35.466477)"><g><path d="M 1.40625 -1.875 L 1.40625 -0.703125 L 3.4375 -0.703125 L 3.4375 0 L 0.5625 0 L 0.5625 -4.265625 L 3.390625 -4.265625 L 3.390625 -3.5625 L 1.40625 -3.5625 L 1.40625 -2.5625 L 3.140625 -2.5625 L 3.140625 -1.875 Z M 1.40625 -1.875 "/></g></g><g transform="translate(19.176961, 35.466477)"><g><path d="M 1.890625 0.0625 C 1.597656 0.0625 1.332031 0.0234375 1.09375 -0.046875 C 0.863281 -0.117188 0.671875 -0.210938 0.515625 -0.328125 C 0.367188 -0.453125 0.253906 -0.585938 0.171875 -0.734375 L 0.640625 -1.296875 L 0.703125 -1.296875 C 0.835938 -1.109375 1.003906 -0.957031 1.203125 -0.84375 C 1.398438 -0.726562 1.628906 -0.671875 1.890625 -0.671875 C 2.117188 -0.671875 2.289062 -0.71875 2.40625 -0.8125 C 2.519531 -0.90625 2.578125 -1.035156 2.578125 -1.203125 C 2.578125 -1.304688 2.554688 -1.390625 2.515625 -1.453125 C 2.484375 -1.523438 2.421875 -1.582031 2.328125 -1.625 C 2.242188 -1.675781 2.128906 -1.722656 1.984375 -1.765625 L 1.4375 -1.890625 C 1.050781 -1.972656 0.765625 -2.113281 0.578125 -2.3125 C 0.390625 -2.519531 0.296875 -2.789062 0.296875 -3.125 C 0.296875 -3.363281 0.351562 -3.570312 0.46875 -3.75 C 0.59375 -3.9375 0.769531 -4.078125 1 -4.171875 C 1.238281 -4.273438 1.519531 -4.328125 1.84375 -4.328125 C 2.164062 -4.328125 2.441406 -4.285156 2.671875 -4.203125 C 2.910156 -4.117188 3.113281 -3.984375 3.28125 -3.796875 L 2.859375 -3.234375 L 2.78125 -3.234375 C 2.664062 -3.359375 2.53125 -3.453125 2.375 -3.515625 C 2.21875 -3.578125 2.039062 -3.609375 1.84375 -3.609375 C 1.601562 -3.609375 1.421875 -3.566406 1.296875 -3.484375 C 1.179688 -3.398438 1.125 -3.289062 1.125 -3.15625 C 1.125 -3.019531 1.164062 -2.910156 1.25 -2.828125 C 1.332031 -2.742188 1.476562 -2.679688 1.6875 -2.640625 L 2.25 -2.53125 C 2.664062 -2.4375 2.96875 -2.285156 3.15625 -2.078125 C 3.34375 -1.867188 3.4375 -1.597656 3.4375 -1.265625 C 3.4375 -0.992188 3.378906 -0.757812 3.265625 -0.5625 C 3.148438 -0.363281 2.976562 -0.207031 2.75 -0.09375 C 2.519531 0.0078125 2.234375 0.0625 1.890625 0.0625 Z M 1.890625 0.0625 "/></g></g><g transform="translate(22.847156, 35.466477)"><g><path d="M 3.421875 -4.265625 L 3.421875 -3.5625 L 2.1875 -3.5625 L 2.1875 0 L 1.34375 0 L 1.34375 -3.5625 L 0.109375 -3.5625 L 0.109375 -4.265625 Z M 3.421875 -4.265625 "/></g></g><g transform="translate(26.388777, 35.466477)"><g><path d="M 4.09375 0 L 3.21875 0 L 2.890625 -0.984375 L 1.25 -0.984375 L 0.9375 0 L 0.0625 0 L 1.546875 -4.265625 L 2.625 -4.265625 Z M 2.03125 -3.375 L 1.484375 -1.6875 L 2.65625 -1.6875 L 2.109375 -3.375 Z M 2.03125 -3.375 "/></g></g><g transform="translate(30.552811, 35.466477)"><g><path d="M 2.265625 0.0625 C 1.671875 0.0625 1.234375 -0.078125 0.953125 -0.359375 C 0.671875 -0.640625 0.53125 -1.050781 0.53125 -1.59375 L 0.53125 -4.265625 L 1.359375 -4.265625 L 1.359375 -1.609375 C 1.359375 -1.296875 1.429688 -1.0625 1.578125 -0.90625 C 1.734375 -0.75 1.960938 -0.671875 2.265625 -0.671875 C 2.867188 -0.671875 3.171875 -0.984375 3.171875 -1.609375 L 3.171875 -4.265625 L 4 -4.265625 L 4 -1.59375 C 4 -1.050781 3.851562 -0.640625 3.5625 -0.359375 C 3.28125 -0.078125 2.847656 0.0625 2.265625 0.0625 Z M 2.265625 0.0625 "/></g></g><g transform="translate(35.082112, 35.466477)"><g><path d="M 0.5625 0 L 0.5625 -4.265625 L 2.265625 -4.265625 C 2.710938 -4.265625 3.046875 -4.160156 3.265625 -3.953125 C 3.492188 -3.753906 3.609375 -3.476562 3.609375 -3.125 C 3.609375 -2.863281 3.539062 -2.648438 3.40625 -2.484375 C 3.28125 -2.316406 3.085938 -2.191406 2.828125 -2.109375 L 2.828125 -2.046875 C 2.960938 -1.984375 3.066406 -1.894531 3.140625 -1.78125 C 3.222656 -1.664062 3.304688 -1.5 3.390625 -1.28125 L 3.8125 0 L 2.9375 0 L 2.53125 -1.28125 C 2.476562 -1.40625 2.425781 -1.503906 2.375 -1.578125 C 2.320312 -1.648438 2.253906 -1.703125 2.171875 -1.734375 C 2.085938 -1.765625 1.984375 -1.78125 1.859375 -1.78125 L 1.40625 -1.78125 L 1.40625 0 Z M 2.171875 -2.453125 C 2.578125 -2.453125 2.78125 -2.640625 2.78125 -3.015625 C 2.78125 -3.410156 2.578125 -3.609375 2.171875 -3.609375 L 1.40625 -3.609375 L 1.40625 -2.453125 Z M 2.171875 -2.453125 "/></g></g><g transform="translate(39.076663, 35.466477)"><g><path d="M 4.09375 0 L 3.21875 0 L 2.890625 -0.984375 L 1.25 -0.984375 L 0.9375 0 L 0.0625 0 L 1.546875 -4.265625 L 2.625 -4.265625 Z M 2.03125 -3.375 L 1.484375 -1.6875 L 2.65625 -1.6875 L 2.109375 -3.375 Z M 2.03125 -3.375 "/></g></g><g transform="translate(43.240697, 35.466477)"><g><path d="M 1.375 0 L 0.5625 0 L 0.5625 -4.265625 L 1.515625 -4.265625 L 3.234375 -1.515625 L 3.3125 -1.53125 L 3.3125 -4.265625 L 4.125 -4.265625 L 4.125 0 L 3.265625 0 L 1.453125 -2.9375 L 1.375 -2.921875 Z M 1.375 0 "/></g></g><g transform="translate(47.924871, 35.466477)"><g><path d="M 3.421875 -4.265625 L 3.421875 -3.5625 L 2.1875 -3.5625 L 2.1875 0 L 1.34375 0 L 1.34375 -3.5625 L 0.109375 -3.5625 L 0.109375 -4.265625 Z M 3.421875 -4.265625 "/></g></g><g transform="translate(51.466492, 35.466477)"><g/></g><g transform="translate(52.87788, 35.466477)"><g><path d="M 1.75 0.0625 C 1.4375 0.0625 1.164062 0.0078125 0.9375 -0.09375 C 0.707031 -0.195312 0.523438 -0.347656 0.390625 -0.546875 C 0.265625 -0.742188 0.203125 -0.972656 0.203125 -1.234375 C 0.203125 -1.515625 0.269531 -1.75 0.40625 -1.9375 C 0.550781 -2.125 0.769531 -2.273438 1.0625 -2.390625 L 1.0625 -2.453125 C 0.9375 -2.609375 0.84375 -2.753906 0.78125 -2.890625 C 0.726562 -3.023438 0.703125 -3.171875 0.703125 -3.328125 C 0.703125 -3.523438 0.75 -3.695312 0.84375 -3.84375 C 0.9375 -4 1.070312 -4.117188 1.25 -4.203125 C 1.425781 -4.285156 1.632812 -4.328125 1.875 -4.328125 C 2.113281 -4.328125 2.316406 -4.285156 2.484375 -4.203125 C 2.648438 -4.128906 2.773438 -4.023438 2.859375 -3.890625 C 2.953125 -3.753906 3 -3.59375 3 -3.40625 C 3 -3.164062 2.925781 -2.957031 2.78125 -2.78125 C 2.632812 -2.601562 2.40625 -2.453125 2.09375 -2.328125 L 2.09375 -2.265625 L 2.890625 -1.234375 C 2.929688 -1.328125 2.960938 -1.441406 2.984375 -1.578125 C 3.003906 -1.710938 3.015625 -1.863281 3.015625 -2.03125 L 3 -2.171875 L 3.6875 -2.171875 C 3.6875 -1.578125 3.570312 -1.09375 3.34375 -0.71875 C 3.382812 -0.675781 3.421875 -0.644531 3.453125 -0.625 C 3.492188 -0.613281 3.535156 -0.609375 3.578125 -0.609375 C 3.617188 -0.609375 3.648438 -0.609375 3.671875 -0.609375 C 3.703125 -0.617188 3.734375 -0.628906 3.765625 -0.640625 L 3.8125 -0.625 L 3.90625 -0.046875 C 3.875 -0.015625 3.820312 0.00390625 3.75 0.015625 C 3.6875 0.0234375 3.613281 0.03125 3.53125 0.03125 C 3.382812 0.03125 3.253906 0.0078125 3.140625 -0.03125 C 3.035156 -0.0820312 2.9375 -0.15625 2.84375 -0.25 L 2.78125 -0.25 C 2.539062 -0.0390625 2.195312 0.0625 1.75 0.0625 Z M 1.75 -2.734375 C 1.925781 -2.828125 2.054688 -2.921875 2.140625 -3.015625 C 2.222656 -3.109375 2.265625 -3.222656 2.265625 -3.359375 C 2.265625 -3.472656 2.226562 -3.5625 2.15625 -3.625 C 2.082031 -3.695312 1.988281 -3.734375 1.875 -3.734375 C 1.75 -3.734375 1.648438 -3.695312 1.578125 -3.625 C 1.503906 -3.5625 1.46875 -3.46875 1.46875 -3.34375 C 1.46875 -3.25 1.488281 -3.160156 1.53125 -3.078125 C 1.570312 -2.992188 1.644531 -2.878906 1.75 -2.734375 Z M 1.84375 -0.640625 C 2.03125 -0.640625 2.191406 -0.675781 2.328125 -0.75 L 1.375 -1.953125 C 1.257812 -1.878906 1.175781 -1.789062 1.125 -1.6875 C 1.070312 -1.59375 1.046875 -1.472656 1.046875 -1.328125 C 1.046875 -1.191406 1.078125 -1.070312 1.140625 -0.96875 C 1.210938 -0.863281 1.304688 -0.78125 1.421875 -0.71875 C 1.546875 -0.664062 1.6875 -0.640625 1.84375 -0.640625 Z M 1.84375 -0.640625 "/></g></g><g transform="translate(56.869509, 35.466477)"><g/></g><g transform="translate(58.280898, 35.466477)"><g><path d="M 0.5625 0 L 0.5625 -4.265625 L 1.40625 -4.265625 L 1.40625 -2.53125 L 1.5 -2.53125 L 2.921875 -4.265625 L 3.78125 -4.265625 L 3.78125 -4.203125 L 2.21875 -2.25 L 3.953125 -0.078125 L 3.953125 0 L 3 0 L 1.5 -1.84375 L 1.40625 -1.84375 L 1.40625 0 Z M 0.5625 0 "/></g></g><g transform="translate(62.228694, 35.466477)"><g><path d="M 1.40625 0 L 0.5625 0 L 0.5625 -4.265625 L 1.40625 -4.265625 Z M 1.40625 0 "/></g></g><g transform="translate(64.186521, 35.466477)"><g><path d="M 3.421875 -4.265625 L 3.421875 -3.5625 L 2.1875 -3.5625 L 2.1875 0 L 1.34375 0 L 1.34375 -3.5625 L 0.109375 -3.5625 L 0.109375 -4.265625 Z M 3.421875 -4.265625 "/></g></g><g transform="translate(67.728142, 35.466477)"><g><path d="M 2.328125 0.0625 C 1.941406 0.0625 1.597656 -0.015625 1.296875 -0.171875 C 0.992188 -0.335938 0.757812 -0.585938 0.59375 -0.921875 C 0.425781 -1.253906 0.34375 -1.660156 0.34375 -2.140625 C 0.34375 -2.617188 0.425781 -3.019531 0.59375 -3.34375 C 0.757812 -3.675781 0.992188 -3.921875 1.296875 -4.078125 C 1.597656 -4.242188 1.941406 -4.328125 2.328125 -4.328125 C 2.742188 -4.328125 3.09375 -4.242188 3.375 -4.078125 C 3.664062 -3.921875 3.875 -3.679688 4 -3.359375 L 3.375 -2.984375 L 3.3125 -2.984375 C 3.21875 -3.203125 3.09375 -3.359375 2.9375 -3.453125 C 2.78125 -3.554688 2.578125 -3.609375 2.328125 -3.609375 C 1.972656 -3.609375 1.695312 -3.488281 1.5 -3.25 C 1.300781 -3.019531 1.203125 -2.648438 1.203125 -2.140625 C 1.203125 -1.628906 1.300781 -1.253906 1.5 -1.015625 C 1.695312 -0.785156 1.972656 -0.671875 2.328125 -0.671875 C 2.890625 -0.671875 3.234375 -0.941406 3.359375 -1.484375 L 3.421875 -1.484375 L 4.046875 -1.15625 C 3.929688 -0.75 3.734375 -0.441406 3.453125 -0.234375 C 3.171875 -0.0351562 2.796875 0.0625 2.328125 0.0625 Z M 2.328125 0.0625 "/></g></g><g transform="translate(71.918476, 35.466477)"><g><path d="M 3.3125 -2.671875 L 3.3125 -4.265625 L 4.15625 -4.265625 L 4.15625 0 L 3.3125 0 L 3.3125 -1.953125 L 1.40625 -1.953125 L 1.40625 0 L 0.5625 0 L 0.5625 -4.265625 L 1.40625 -4.265625 L 1.40625 -2.671875 Z M 3.3125 -2.671875 "/></g></g><g transform="translate(76.631871, 35.466477)"><g><path d="M 1.40625 -1.875 L 1.40625 -0.703125 L 3.4375 -0.703125 L 3.4375 0 L 0.5625 0 L 0.5625 -4.265625 L 3.390625 -4.265625 L 3.390625 -3.5625 L 1.40625 -3.5625 L 1.40625 -2.5625 L 3.140625 -2.5625 L 3.140625 -1.875 Z M 1.40625 -1.875 "/></g></g><g transform="translate(80.304987, 35.466477)"><g><path d="M 1.375 0 L 0.5625 0 L 0.5625 -4.265625 L 1.515625 -4.265625 L 3.234375 -1.515625 L 3.3125 -1.53125 L 3.3125 -4.265625 L 4.125 -4.265625 L 4.125 0 L 3.265625 0 L 1.453125 -2.9375 L 1.375 -2.921875 Z M 1.375 0 "/></g></g></g><g fill="#5e17eb" fill-opacity="1"><g transform="translate(30.83431, 43.445839)"><g><path d="M 1.890625 0.0625 C 1.597656 0.0625 1.332031 0.0234375 1.09375 -0.046875 C 0.863281 -0.117188 0.671875 -0.210938 0.515625 -0.328125 C 0.367188 -0.453125 0.253906 -0.585938 0.171875 -0.734375 L 0.640625 -1.296875 L 0.703125 -1.296875 C 0.835938 -1.109375 1.003906 -0.957031 1.203125 -0.84375 C 1.398438 -0.726562 1.628906 -0.671875 1.890625 -0.671875 C 2.117188 -0.671875 2.289062 -0.71875 2.40625 -0.8125 C 2.519531 -0.90625 2.578125 -1.035156 2.578125 -1.203125 C 2.578125 -1.304688 2.554688 -1.390625 2.515625 -1.453125 C 2.484375 -1.523438 2.421875 -1.582031 2.328125 -1.625 C 2.242188 -1.675781 2.128906 -1.722656 1.984375 -1.765625 L 1.4375 -1.890625 C 1.050781 -1.972656 0.765625 -2.113281 0.578125 -2.3125 C 0.390625 -2.519531 0.296875 -2.789062 0.296875 -3.125 C 0.296875 -3.363281 0.351562 -3.570312 0.46875 -3.75 C 0.59375 -3.9375 0.769531 -4.078125 1 -4.171875 C 1.238281 -4.273438 1.519531 -4.328125 1.84375 -4.328125 C 2.164062 -4.328125 2.441406 -4.285156 2.671875 -4.203125 C 2.910156 -4.117188 3.113281 -3.984375 3.28125 -3.796875 L 2.859375 -3.234375 L 2.78125 -3.234375 C 2.664062 -3.359375 2.53125 -3.453125 2.375 -3.515625 C 2.21875 -3.578125 2.039062 -3.609375 1.84375 -3.609375 C 1.601562 -3.609375 1.421875 -3.566406 1.296875 -3.484375 C 1.179688 -3.398438 1.125 -3.289062 1.125 -3.15625 C 1.125 -3.019531 1.164062 -2.910156 1.25 -2.828125 C 1.332031 -2.742188 1.476562 -2.679688 1.6875 -2.640625 L 2.25 -2.53125 C 2.664062 -2.4375 2.96875 -2.285156 3.15625 -2.078125 C 3.34375 -1.867188 3.4375 -1.597656 3.4375 -1.265625 C 3.4375 -0.992188 3.378906 -0.757812 3.265625 -0.5625 C 3.148438 -0.363281 2.976562 -0.207031 2.75 -0.09375 C 2.519531 0.0078125 2.234375 0.0625 1.890625 0.0625 Z M 1.890625 0.0625 "/></g></g><g transform="translate(34.504504, 43.445839)"><g><path d="M 2.328125 0.0625 C 1.929688 0.0625 1.582031 -0.015625 1.28125 -0.171875 C 0.988281 -0.335938 0.757812 -0.582031 0.59375 -0.90625 C 0.425781 -1.238281 0.34375 -1.648438 0.34375 -2.140625 C 0.34375 -2.628906 0.425781 -3.035156 0.59375 -3.359375 C 0.757812 -3.691406 0.988281 -3.9375 1.28125 -4.09375 C 1.582031 -4.25 1.929688 -4.328125 2.328125 -4.328125 C 2.722656 -4.328125 3.066406 -4.25 3.359375 -4.09375 C 3.660156 -3.9375 3.894531 -3.691406 4.0625 -3.359375 C 4.226562 -3.035156 4.3125 -2.628906 4.3125 -2.140625 C 4.3125 -1.648438 4.226562 -1.238281 4.0625 -0.90625 C 3.894531 -0.582031 3.660156 -0.335938 3.359375 -0.171875 C 3.066406 -0.015625 2.722656 0.0625 2.328125 0.0625 Z M 2.328125 -0.671875 C 2.691406 -0.671875 2.96875 -0.785156 3.15625 -1.015625 C 3.34375 -1.253906 3.4375 -1.628906 3.4375 -2.140625 C 3.4375 -2.648438 3.34375 -3.019531 3.15625 -3.25 C 2.96875 -3.488281 2.691406 -3.609375 2.328125 -3.609375 C 1.960938 -3.609375 1.679688 -3.488281 1.484375 -3.25 C 1.296875 -3.019531 1.203125 -2.648438 1.203125 -2.140625 C 1.203125 -1.628906 1.296875 -1.253906 1.484375 -1.015625 C 1.679688 -0.785156 1.960938 -0.671875 2.328125 -0.671875 Z M 2.328125 -0.671875 "/></g></g><g transform="translate(39.159457, 43.445839)"><g><path d="M 1.40625 -4.265625 L 1.40625 -0.703125 L 3.3125 -0.703125 L 3.3125 0 L 0.5625 0 L 0.5625 -4.265625 Z M 1.40625 -4.265625 "/></g></g><g transform="translate(42.619258, 43.445839)"><g><path d="M 2.265625 0.0625 C 1.671875 0.0625 1.234375 -0.078125 0.953125 -0.359375 C 0.671875 -0.640625 0.53125 -1.050781 0.53125 -1.59375 L 0.53125 -4.265625 L 1.359375 -4.265625 L 1.359375 -1.609375 C 1.359375 -1.296875 1.429688 -1.0625 1.578125 -0.90625 C 1.734375 -0.75 1.960938 -0.671875 2.265625 -0.671875 C 2.867188 -0.671875 3.171875 -0.984375 3.171875 -1.609375 L 3.171875 -4.265625 L 4 -4.265625 L 4 -1.59375 C 4 -1.050781 3.851562 -0.640625 3.5625 -0.359375 C 3.28125 -0.078125 2.847656 0.0625 2.265625 0.0625 Z M 2.265625 0.0625 "/></g></g><g transform="translate(47.148558, 43.445839)"><g><path d="M 3.421875 -4.265625 L 3.421875 -3.5625 L 2.1875 -3.5625 L 2.1875 0 L 1.34375 0 L 1.34375 -3.5625 L 0.109375 -3.5625 L 0.109375 -4.265625 Z M 3.421875 -4.265625 "/></g></g><g transform="translate(50.690179, 43.445839)"><g><path d="M 1.40625 0 L 0.5625 0 L 0.5625 -4.265625 L 1.40625 -4.265625 Z M 1.40625 0 "/></g></g><g transform="translate(52.648006, 43.445839)"><g><path d="M 2.328125 0.0625 C 1.929688 0.0625 1.582031 -0.015625 1.28125 -0.171875 C 0.988281 -0.335938 0.757812 -0.582031 0.59375 -0.90625 C 0.425781 -1.238281 0.34375 -1.648438 0.34375 -2.140625 C 0.34375 -2.628906 0.425781 -3.035156 0.59375 -3.359375 C 0.757812 -3.691406 0.988281 -3.9375 1.28125 -4.09375 C 1.582031 -4.25 1.929688 -4.328125 2.328125 -4.328125 C 2.722656 -4.328125 3.066406 -4.25 3.359375 -4.09375 C 3.660156 -3.9375 3.894531 -3.691406 4.0625 -3.359375 C 4.226562 -3.035156 4.3125 -2.628906 4.3125 -2.140625 C 4.3125 -1.648438 4.226562 -1.238281 4.0625 -0.90625 C 3.894531 -0.582031 3.660156 -0.335938 3.359375 -0.171875 C 3.066406 -0.015625 2.722656 0.0625 2.328125 0.0625 Z M 2.328125 -0.671875 C 2.691406 -0.671875 2.96875 -0.785156 3.15625 -1.015625 C 3.34375 -1.253906 3.4375 -1.628906 3.4375 -2.140625 C 3.4375 -2.648438 3.34375 -3.019531 3.15625 -3.25 C 2.96875 -3.488281 2.691406 -3.609375 2.328125 -3.609375 C 1.960938 -3.609375 1.679688 -3.488281 1.484375 -3.25 C 1.296875 -3.019531 1.203125 -2.648438 1.203125 -2.140625 C 1.203125 -1.628906 1.296875 -1.253906 1.484375 -1.015625 C 1.679688 -0.785156 1.960938 -0.671875 2.328125 -0.671875 Z M 2.328125 -0.671875 "/></g></g><g transform="translate(57.302958, 43.445839)"><g><path d="M 1.375 0 L 0.5625 0 L 0.5625 -4.265625 L 1.515625 -4.265625 L 3.234375 -1.515625 L 3.3125 -1.53125 L 3.3125 -4.265625 L 4.125 -4.265625 L 4.125 0 L 3.265625 0 L 1.453125 -2.9375 L 1.375 -2.921875 Z M 1.375 0 "/></g></g><g transform="translate(61.987132, 43.445839)"><g><path d="M 1.890625 0.0625 C 1.597656 0.0625 1.332031 0.0234375 1.09375 -0.046875 C 0.863281 -0.117188 0.671875 -0.210938 0.515625 -0.328125 C 0.367188 -0.453125 0.253906 -0.585938 0.171875 -0.734375 L 0.640625 -1.296875 L 0.703125 -1.296875 C 0.835938 -1.109375 1.003906 -0.957031 1.203125 -0.84375 C 1.398438 -0.726562 1.628906 -0.671875 1.890625 -0.671875 C 2.117188 -0.671875 2.289062 -0.71875 2.40625 -0.8125 C 2.519531 -0.90625 2.578125 -1.035156 2.578125 -1.203125 C 2.578125 -1.304688 2.554688 -1.390625 2.515625 -1.453125 C 2.484375 -1.523438 2.421875 -1.582031 2.328125 -1.625 C 2.242188 -1.675781 2.128906 -1.722656 1.984375 -1.765625 L 1.4375 -1.890625 C 1.050781 -1.972656 0.765625 -2.113281 0.578125 -2.3125 C 0.390625 -2.519531 0.296875 -2.789062 0.296875 -3.125 C 0.296875 -3.363281 0.351562 -3.570312 0.46875 -3.75 C 0.59375 -3.9375 0.769531 -4.078125 1 -4.171875 C 1.238281 -4.273438 1.519531 -4.328125 1.84375 -4.328125 C 2.164062 -4.328125 2.441406 -4.285156 2.671875 -4.203125 C 2.910156 -4.117188 3.113281 -3.984375 3.28125 -3.796875 L 2.859375 -3.234375 L 2.78125 -3.234375 C 2.664062 -3.359375 2.53125 -3.453125 2.375 -3.515625 C 2.21875 -3.578125 2.039062 -3.609375 1.84375 -3.609375 C 1.601562 -3.609375 1.421875 -3.566406 1.296875 -3.484375 C 1.179688 -3.398438 1.125 -3.289062 1.125 -3.15625 C 1.125 -3.019531 1.164062 -2.910156 1.25 -2.828125 C 1.332031 -2.742188 1.476562 -2.679688 1.6875 -2.640625 L 2.25 -2.53125 C 2.664062 -2.4375 2.96875 -2.285156 3.15625 -2.078125 C 3.34375 -1.867188 3.4375 -1.597656 3.4375 -1.265625 C 3.4375 -0.992188 3.378906 -0.757812 3.265625 -0.5625 C 3.148438 -0.363281 2.976562 -0.207031 2.75 -0.09375 C 2.519531 0.0078125 2.234375 0.0625 1.890625 0.0625 Z M 1.890625 0.0625 "/></g></g></g></svg>